<?xml version="1.0" encoding="utf-8"?>
<!-- Generator: Adobe Illustrator 22.0.1, SVG Export Plug-In . SVG Version: 6.00 Build 0)  -->
<svg version="1.1" id="Capa_1" xmlns="http://www.w3.org/2000/svg" xmlns:xlink="http://www.w3.org/1999/xlink" x="0px" y="0px"
	 viewBox="0 0 45.7 45.7" style="enable-background:new 0 0 45.7 45.7;" xml:space="preserve">
<style type="text/css">
	.st0{fill:#82C53A;}
</style>
<g>
	<path class="st0" d="M45.6,8.3c0-4.6-3.7-8.3-8.3-8.3h-29C6.1,0,4,0.9,2.4,2.5C0.9,4.1,0,6.2,0,8.4l0.1,22.2c0,4.6,3.7,8.3,8.3,8.3
		h8.2l3.9,5.6c0.5,0.8,1.4,1.2,2.3,1.2c0.9,0,1.8-0.4,2.3-1.2l3.9-5.6h8.3c2.2,0,4.3-0.9,5.9-2.4c1.6-1.6,2.4-3.7,2.4-5.9L45.6,8.3z
		 M22.8,5c4.3,0,7.8,3.5,7.8,7.8c0,4.3-3.5,7.8-7.8,7.8s-7.8-3.5-7.8-7.8C15.1,8.5,18.6,5,22.8,5z M35.2,32.1c0,1-0.8,1.7-1.7,1.7
		H12.2c-1,0-1.7-0.8-1.7-1.7c0-4.3,3.5-7.9,7.9-7.9h9c2.1,0,4.1,0.8,5.6,2.3C34.4,28,35.2,30,35.2,32.1L35.2,32.1z"/>
</g>
</svg>
