<?xml version="1.0" encoding="utf-8"?>
<!-- Generator: Adobe Illustrator 22.0.1, SVG Export Plug-In . SVG Version: 6.00 Build 0)  -->
<svg version="1.1" id="Capa_1" xmlns="http://www.w3.org/2000/svg" xmlns:xlink="http://www.w3.org/1999/xlink" x="0px" y="0px"
	 viewBox="0 0 45.9 45.9" style="enable-background:new 0 0 45.9 45.9;" xml:space="preserve">
<style type="text/css">
	.st0{fill:#82C53A;}
</style>
<g>
	<path class="st0" d="M45.9,31.9l-0.5-10c-0.1-2.4-2.1-4.3-4.5-4.3h0v-4.9c0-4.8-3.9-8.8-8.8-8.8H13.8C9,3.9,5,7.9,5,12.7v5h0
		c-2.4,0-4.4,1.9-4.5,4.3L0,31.9c-0.1,1.2,0.4,2.4,1.2,3.3c0.2,0.2,0.5,0.5,0.8,0.6v3.8C2,41,3.1,42,4.4,42h3.7c1.3,0,2.4-1,2.4-2.4
		v-3h25v3c0,1.3,1.1,2.4,2.4,2.4h3.7c1.3,0,2.4-1,2.4-2.4v-3.8c0.3-0.2,0.5-0.4,0.8-0.6C45.5,34.4,46,33.2,45.9,31.9z M8.1,30.1
		c-1.6,0-3-1.3-3-3c0-1.6,1.3-3,3-3c1.6,0,3,1.3,3,3S9.8,30.1,8.1,30.1z M33.8,17.7H12.1v-5c0-1,0.8-1.8,1.7-1.8h18.3
		c1,0,1.7,0.8,1.7,1.8L33.8,17.7L33.8,17.7z M37.8,30.1c-1.6,0-3-1.3-3-3c0-1.6,1.3-3,3-3c1.6,0,3,1.3,3,3S39.4,30.1,37.8,30.1z"/>
</g>
</svg>
