<?xml version="1.0" encoding="utf-8"?>
<!-- Generator: Adobe Illustrator 22.0.1, SVG Export Plug-In . SVG Version: 6.00 Build 0)  -->
<svg version="1.1" id="Capa_1" xmlns="http://www.w3.org/2000/svg" xmlns:xlink="http://www.w3.org/1999/xlink" x="0px" y="0px"
	 viewBox="0 0 228 228" style="enable-background:new 0 0 228 228;" xml:space="preserve">
<style type="text/css">
	.st0{fill:#82C53A;}
</style>
<path class="st0" d="M103.4,145.6c0,5.5-4.5,10-10,10c0,0,0,0,0,0H42.7c-5.5,0-10-4.5-10-10c0-11.6,9.5-21.1,21.1-21.1h2.1
	c-5.1-3.7-8.5-9.8-8.5-16.6c0-11.3,9.2-20.6,20.6-20.6s20.6,9.2,20.6,20.6c0,6.8-3.3,12.8-8.5,16.6h2.1c11.3,0,20.6,9,21.1,20.2
	C103.3,145,103.4,145.3,103.4,145.6z M228,44.7v138.5c0,4.1-3.4,7.5-7.5,7.5H7.5c-4.1,0-7.5-3.4-7.5-7.5V44.7c0-4.1,3.4-7.5,7.5-7.5
	h213C224.6,37.2,228,40.6,228,44.7z M114.6,70.4c0-4.1-3.4-7.5-7.5-7.5H28.9c-4.1,0-7.5,3.4-7.5,7.5v87.3c0,4.1,3.4,7.5,7.5,7.5
	h78.3c4.1,0,7.5-3.4,7.5-7.5L114.6,70.4L114.6,70.4z M204.7,146c0-4.1-3.4-7.5-7.5-7.5h-53.6c-4.1,0-7.5,3.4-7.5,7.5
	s3.4,7.5,7.5,7.5h53.6C201.4,153.5,204.7,150.1,204.7,146z M204.7,114c0-4.1-3.4-7.5-7.5-7.5h-53.6c-4.1,0-7.5,3.4-7.5,7.5
	s3.4,7.5,7.5,7.5h53.6C201.4,121.5,204.7,118.1,204.7,114z M204.7,82c0-4.1-3.4-7.5-7.5-7.5h-53.6c-4.1,0-7.5,3.4-7.5,7.5
	s3.4,7.5,7.5,7.5h53.6C201.4,89.5,204.7,86.1,204.7,82z"/>
</svg>
