<?xml version="1.0" encoding="utf-8"?>
<!-- Generator: Adobe Illustrator 22.0.1, SVG Export Plug-In . SVG Version: 6.00 Build 0)  -->
<svg version="1.1" id="Capa_1" xmlns="http://www.w3.org/2000/svg" xmlns:xlink="http://www.w3.org/1999/xlink" x="0px" y="0px"
	 viewBox="0 0 512 512" style="enable-background:new 0 0 512 512;" xml:space="preserve">
<path id="XMLID_1141_" d="M167.6,268.2c-7.9,0-15.4,6.9-15.1,15.1c0.4,8.2,6.6,15.1,15.1,15.1c7.9,0,15.4-6.9,15.1-15.1
	C182.3,275.1,176,268.2,167.6,268.2z"/>
<path id="XMLID_1209_" d="M344.4,268.2c-7.9,0-15.4,6.9-15.1,15.1c0.4,8.2,6.6,15.1,15.1,15.1c7.9,0,15.4-6.9,15.1-15.1
	C359.1,275.1,352.9,268.2,344.4,268.2z"/>
<path id="XMLID_1210_" d="M219.8,268.2h72.5v30.1h-72.5V268.2z"/>
<path id="XMLID_1217_" d="M454.5,245c0-20.1-14.1-36.9-33-41.2l-24.7-89.7c-5-18.3-21.8-31.1-40.8-31.1H155.9
	c-19,0-35.7,12.8-40.8,31.1l-24.7,89.7c-18.8,4.2-33,21.1-33,41.2v116.5h18.7v67.4h94.2v-67.4h171.3v67.4h94.2v-67.4h18.7L454.5,245
	z M144.2,122.2c1.4-5.3,6.3-8.9,11.7-8.9h200.2c5.5,0,10.3,3.7,11.7,8.9l22.2,80.7h-22.9c-6.8-28.9-32.8-50.5-63.8-50.5
	s-57,21.6-63.8,50.5H122L144.2,122.2z M335.3,202.9h-64.2c5.7-12,17.9-20.4,32.1-20.4C317.4,182.5,329.7,190.8,335.3,202.9z
	 M140.2,398.7h-33.9v-37.2h33.9V398.7z M87.6,331.4V245c0-6.6,5.4-12.1,12.1-12.1h312.6c6.6,0,12.1,5.4,12.1,12.1v86.3L87.6,331.4z
	 M405.7,398.7h-33.9v-37.2h33.9V398.7z"/>
</svg>
