<?xml version="1.0" encoding="utf-8"?>
<!-- Generator: Adobe Illustrator 22.0.1, SVG Export Plug-In . SVG Version: 6.00 Build 0)  -->
<svg version="1.1" id="Capa_1" xmlns="http://www.w3.org/2000/svg" xmlns:xlink="http://www.w3.org/1999/xlink" x="0px" y="0px"
	 viewBox="0 0 49.3 61.8" style="enable-background:new 0 0 49.3 61.8;" xml:space="preserve">
<style type="text/css">
	.st0{fill:#82C53A;}
</style>
<g>
	<path class="st0" d="M47.9,51.7l-0.5-10c-0.1-2.4-2.1-4.3-4.5-4.3l0,0v-4.9c0-4.9-3.9-8.8-8.8-8.8H15.8c-4.9,0-8.8,4-8.8,8.8v5l0,0
		c-2.4,0-4.4,1.9-4.5,4.3L2,51.7c-0.1,1.2,0.4,2.4,1.2,3.3c0.2,0.2,0.5,0.5,0.8,0.6v3.8c0,1.3,1.1,2.4,2.4,2.4h3.7
		c1.3,0,2.4-1,2.4-2.4v-3h25v3c0,1.3,1.1,2.4,2.4,2.4h3.7c1.3,0,2.4-1,2.4-2.4v-3.8c0.3-0.2,0.5-0.4,0.8-0.6
		C47.5,54.1,48,52.9,47.9,51.7z M10.1,49.9c-1.6,0-3-1.3-3-3c0-1.6,1.3-3,3-3c1.6,0,3,1.3,3,3S11.8,49.9,10.1,49.9z M35.8,37.4H14.1
		v-5c0-1,0.8-1.8,1.7-1.8h18.3c1,0,1.7,0.8,1.7,1.8V37.4L35.8,37.4z M39.8,49.9c-1.6,0-3-1.3-3-3c0-1.6,1.3-3,3-3c1.6,0,3,1.3,3,3
		S41.4,49.9,39.8,49.9z"/>
</g>
<path class="st0" d="M35,8c-1,2.1-2.7,3.7-4.8,4.8c2.1,1,3.7,2.7,4.8,4.8c1-2.1,2.7-3.7,4.8-4.8C37.7,11.7,36.1,10,35,8z"/>
<path class="st0" d="M6.4,0c-1,2.1-2.7,3.7-4.8,4.8c2.1,1,3.7,2.7,4.8,4.8c1-2.1,2.7-3.7,4.8-4.8C9.1,3.7,7.4,2.1,6.4,0z"/>
<path class="st0" d="M4.8,17.5c-1,2.1-2.7,3.7-4.8,4.8c2.1,1,3.7,2.7,4.8,4.8c1-2.1,2.7-3.7,4.8-4.8C7.5,21.2,5.8,19.6,4.8,17.5z"/>
<path class="st0" d="M44.6,17.5c-1,2.1-2.7,3.7-4.8,4.8c2.1,1,3.7,2.7,4.8,4.8c1-2.1,2.7-3.7,4.8-4.8C47.3,21.2,45.6,19.6,44.6,17.5
	z"/>
<path class="st0" d="M16.7,8c-1.2,2.4-3.2,4.4-5.6,5.6c2.4,1.2,4.4,3.2,5.6,5.6c1.2-2.4,3.2-4.4,5.6-5.6C19.9,12.3,17.9,10.4,16.7,8
	z"/>
</svg>
