<?xml version="1.0" encoding="utf-8"?>
<!-- Generator: Adobe Illustrator 22.0.1, SVG Export Plug-In . SVG Version: 6.00 Build 0)  -->
<svg version="1.1" id="bold" xmlns="http://www.w3.org/2000/svg" xmlns:xlink="http://www.w3.org/1999/xlink" x="0px" y="0px"
	 viewBox="0 0 512 512" style="enable-background:new 0 0 512 512;" xml:space="preserve">
<style type="text/css">
	.st0{fill:#82C53A;}
</style>
<path class="st0" d="M441.4,318.7c-12.4,7.7-24.1,13.7-34.6,17.9c-7.3,3.2-15.1,4.7-22.8,4.7c-7.7,0-15.6-1.5-22.8-4.7
	c-18.6-7.7-41.2-20.5-63.1-38H94.3l31.6-72.5c3.4-7.7,11.1-12.8,19.4-12.8h84.1c-6-13.2-10.7-27.5-13.2-42.7h-70.8
	c-25.4,0-48.4,15.1-58.7,38.4l-42.2,97.1c-0.2,0.4,0,0.9-0.2,1.5c-26,13.2-44.2,39.9-44.2,71v80C0,488.1,23.9,512,53.3,512
	s53.3-23.9,53.3-53.3V448h256v10.7c0,29.4,23.9,53.3,53.3,53.3c29.4,0,53.3-23.9,53.3-53.3v-80C469.3,354.6,458.5,333,441.4,318.7
	L441.4,318.7z M128,405.3H85.3c-11.7,0-21.3-9.6-21.3-21.3c0-11.7,9.6-21.3,21.3-21.3H128c11.7,0,21.3,9.6,21.3,21.3
	C149.3,395.7,139.7,405.3,128,405.3z M384,405.3h-42.7c-11.7,0-21.3-9.6-21.3-21.3c0-11.7,9.6-21.3,21.3-21.3H384
	c11.7,0,21.3,9.6,21.3,21.3C405.3,395.7,395.7,405.3,384,405.3z"/>
<path class="st0" d="M501.1,39l-112-38.1c-3.3-1.2-7-1.2-10.3,0L266.9,39c-6.5,2.2-10.9,8.3-10.9,15.1v85.7
	c0,104.6,116.8,155.5,121.7,157.6c4,1.7,8.5,1.7,12.5,0c5-2.1,121.7-53,121.7-157.6V54.1C512,47.3,507.6,41.2,501.1,39z
	 M454.1,119.9l-58.7,74.7c-7.5,9.5-21.5,10.9-30.6,3l-37.3-32c-9-7.7-10-21.1-2.3-30.1c7.7-8.9,21.1-10,30.1-2.3l20.4,17.5
	l44.9-57.2c7.3-9.3,20.7-10.9,30-3.6C459.8,97.2,461.4,110.6,454.1,119.9L454.1,119.9z"/>
</svg>
